<svg class="svg-icon" style="width: 1em;height: 1em;vertical-align: middle;fill: currentColor;overflow: hidden;" viewBox="0 0 1024 1024" version="1.1" xmlns="http://www.w3.org/2000/svg"><path d="M803.75 187.87h-591a34 34 0 0 0-34 34v659a34 34 0 0 0 34 34h591a34 34 0 0 0 34-34v-659a34 34 0 0 0-34-34zM281.59 319.71a36.86 36.86 0 0 1 26.16-10.84h401a37 37 0 0 1 0 74h-401a37 37 0 0 1-26.16-63.16z m0 154a36.86 36.86 0 0 1 26.16-10.84h280.5a37 37 0 0 1 0 74h-280.5a37 37 0 0 1-26.16-63.16z m166.76 217.16h-147.7c-16.51 0-29.9-16.57-29.9-37a41.7 41.7 0 0 1 8.76-26.16c5.41-6.7 12.88-10.84 21.14-10.84h147.7c16.51 0 29.9 16.57 29.9 37a45.15 45.15 0 0 1-0.35 5.63 40.51 40.51 0 0 1-8.41 20.5 31.25 31.25 0 0 1-5.18 5.11 25.61 25.61 0 0 1-15.96 5.76z" fill="#005EB8" /><path d="M838.66 749.48a144.16 144.16 0 0 0-0.91-15.63c-0.18-1.74-0.39-3.48-0.61-5.21l0.61-0.47v-125.9a11.51 11.51 0 0 0-8.88-0.55L774.77 623a159.81 159.81 0 0 0-36.71-20.84l-8.26-56.36a10.52 10.52 0 0 0-10.65-8.93h-86.9a10.53 10.53 0 0 0-10.65 8.93l-8.26 56.34A168 168 0 0 0 576.62 623l-54.09-21.26a10.72 10.72 0 0 0-13.26 4.68L477.9 659.5 465.81 680a10.32 10.32 0 0 0-1.5 5.18 10.43 10.43 0 0 0 4.11 8.42l45.84 35.08a164.85 164.85 0 0 0-1.52 20.84 166.71 166.71 0 0 0 1.52 20.83l-45.84 35.07a10.57 10.57 0 0 0-2.61 13.58l43.46 73.56c2.61 4.68 8.47 6.38 13.26 4.68L576.62 876a159.72 159.72 0 0 0 36.72 20.84l2.66 18.03h119.41l2.65-18.07a167.32 167.32 0 0 0 36.71-20.8l54.1 21.27a11 11 0 0 0 4.27 0.73 33.8 33.8 0 0 0 4.61-17.09V770.78l-0.61-0.47c0.22-1.73 0.43-3.47 0.61-5.21a144.28 144.28 0 0 0 0.91-15.62z m-163 74.4c-41.93 0-76-33.39-76-74.41s34.11-74.42 76-74.42 76 33.39 76 74.42-34.02 74.41-75.96 74.41z" fill="#FABA1E" /><path d="M735.41 914.87l-5.61 38.27a10.52 10.52 0 0 1-10.65 8.93h-86.9a10.52 10.52 0 0 1-10.65-8.93l-5.6-38.27zM883 693.56l-45.23 34.61v-125.9a10.07 10.07 0 0 1 4.38 4.13l43.44 73.6a10.56 10.56 0 0 1-2.59 13.56zM885.59 819l-43.46 73.56a10.56 10.56 0 0 1-9 5.41 33.8 33.8 0 0 0 4.61-17.09v-110.1l45.26 34.6a10.57 10.57 0 0 1 2.59 13.62z" fill="#FBE038" /></svg>