<svg class="svg-icon" style="width: 1.04296875em;height: 1em;vertical-align: middle;fill: currentColor;overflow: hidden;" viewBox="0 0 1068 1024" version="1.1" xmlns="http://www.w3.org/2000/svg"><path d="M979.478261 489.73913h-89.043478v-44.521739a356.173913 356.173913 0 0 0-712.347826 0v44.521739H89.043478v-44.521739a445.217391 445.217391 0 0 1 890.434783 0z m0 356.173913v-44.521739h-89.043478v44.521739a44.521739 44.521739 0 0 1-44.52174 44.52174h-222.608695v89.043478h222.608695a133.565217 133.565217 0 0 0 133.565218-133.565218z" fill="#0B70DD" /><path d="M890.434783 845.913043a44.521739 44.521739 0 0 1-4.897392 19.589566 133.565217 133.565217 0 0 0 27.158261 2.671304 133.565217 133.565217 0 0 0 66.782609-18.253913V801.391304h-89.043478z" fill="#0D5D99" /><path d="M133.565217 845.913043a133.565217 133.565217 0 0 1-133.565217-133.565217v-133.565217a89.043478 89.043478 0 0 1 89.043478-89.043479h89.043479a89.043478 89.043478 0 0 1 89.043478 89.043479v133.565217a133.565217 133.565217 0 0 1-133.565218 133.565217z m934.956522-133.565217v-133.565217a89.043478 89.043478 0 0 0-89.043478-89.043479h-89.043478a89.043478 89.043478 0 0 0-89.043479 89.043479v133.565217a133.565217 133.565217 0 0 0 133.565218 133.565217 133.565217 133.565217 0 0 0 133.565217-133.565217z m-489.73913 133.565217a89.043478 89.043478 0 1 0 89.043478 89.043479 89.043478 89.043478 0 0 0-89.043478-89.043479z" fill="#3395FF" /></svg>